<svg id="Layer_1" data-name="Layer 1" xmlns="http://www.w3.org/2000/svg" viewBox="0 0 1064.55 177.03"><defs><style>.cls-1{fill:#c00;}.cls-2{fill:none;stroke:#c00;stroke-width:0.5px;}</style></defs><title>logo</title><path class="cls-1" d="M237.08,88.4l-8.92-30.28-2.43-9.46V88.4h-7.57V25.14H226l8.11,30.28,2.43,9.46v-40h7.3V88.13l-6.76.27Z" transform="translate(0.25 0.25)"/><path class="cls-1" d="M276.55,89.21c-7,0-12.16-5.41-12.16-13V36.77c0-7.57,5.14-13,12.16-13s12.16,5.41,12.16,13V76.23C288.72,84.07,283.58,89.21,276.55,89.21Zm3.78-53c0-2.43-1.35-4.05-3.78-4.05s-3.78,1.62-3.78,4.05V77c0,2.43,1.35,4.05,3.78,4.05s3.78-1.62,3.78-4.05Z" transform="translate(0.25 0.25)"/><path class="cls-1" d="M328.45,88.67c-3,0-4.33-3.78-4.33-8.38V65.15c0-2.16-1.08-3.78-3.24-3.78H317.1v27H309V25.14H321.7c5.41,0,10.54,3,10.54,11.08V49.47a8.39,8.39,0,0,1-4.87,8.11,8.61,8.61,0,0,1,5.14,8.11V79.75a13.66,13.66,0,0,0,1.35,6.49v2.43Zm-4.6-52.17c0-2.43-.81-3.51-2.7-3.51H317.1V54.34h3.51c1.89,0,3-1.35,3-3.78V36.49Z" transform="translate(0.25 0.25)"/><path class="cls-1" d="M366.57,33.25V88.4h-8.38V33.25h-7.84V25.14h23.79v8.11Z" transform="translate(0.25 0.25)"/><path class="cls-1" d="M407.66,88.4V61.1h-8.11V88.4h-8.38V25.14h8.38V53.26h8.11V25.14H416V88.4Z" transform="translate(0.25 0.25)"/><path class="cls-1" d="M435.51,88.4V25.14h20.27V33H443.89V52.17h8.38v7.57h-8.38V80.83h11.89v7.84l-20.27-.27Z" transform="translate(0.25 0.25)"/><path class="cls-1" d="M488.76,88.4l-1.08-12.16h-7.3L479,88.4h-7.57l8.38-63.26H489l8.38,63.26Zm-4.33-47-3,27.3h5.41Z" transform="translate(0.25 0.25)"/><path class="cls-1" d="M526.07,89.21c-7.57,0-12.16-4.87-12.16-13V69.48h7.57v7c0,3.24,1.35,5.41,4.05,5.41,3,0,4.33-1.89,4.33-5.14,0-5.95-2.16-10.54-6.76-17-4.05-5.68-9.19-14.33-9.19-21.63,0-8.11,3.78-14.06,12.16-14.06,6.76,0,11.35,4.87,11.35,13v7.3h-7.57V36.77c0-3.24-1.35-5.14-3.78-5.14S522,33.25,522,36.22c0,7,2.43,10.27,7,17.57,4.87,7,8.65,14.33,8.65,21.63C538.23,85.43,532,89.21,526.07,89.21Z" transform="translate(0.25 0.25)"/><path class="cls-1" d="M570.4,33.25V88.4H562V33.25h-7.84V25.14H578v8.11Z" transform="translate(0.25 0.25)"/><path class="cls-1" d="M595.27,88.4V25.14h20.27V33H603.65V52.17H612v7.57h-8.38V80.83h11.89v7.84l-20.27-.27Z" transform="translate(0.25 0.25)"/><path class="cls-1" d="M653.39,88.67c-3,0-4.33-3.78-4.33-8.38V65.15c0-2.16-1.08-3.78-3.24-3.78H642v27h-8.38V25.14h12.71c5.41,0,10.54,3,10.54,11.08V49.47A8.38,8.38,0,0,1,652,57.58a8.61,8.61,0,0,1,5.14,8.11V79.75a13.66,13.66,0,0,0,1.35,6.49v2.43Zm-4.6-52.17c0-2.43-.81-3.51-2.7-3.51H642V54.34h3.51c1.89,0,3-1.35,3-3.78l.27-14.06Z" transform="translate(0.25 0.25)"/><path class="cls-1" d="M696.65,88.4l-8.92-30.28-2.43-9.46V88.4h-7.57V25.14h7.84l8.11,30.28,2.43,9.46v-40h7.3V88.13l-6.76.27Z" transform="translate(0.25 0.25)"/><path class="cls-1" d="M775.85,88.4V40.28L774.5,53,769.37,88.4h-6.49L758,53l-1.35-12.71V88.4h-7.3V25.14h11.35l4.6,31.9,1.35,12.71L768,57l4.33-31.9h11.08V88.4Z" transform="translate(0.25 0.25)"/><path class="cls-1" d="M819.11,88.4,818,76.23h-7.3L809.38,88.4h-7.57l8.38-63.26h9.19l8.38,63.26Zm-4.33-47-3,27.3h5.41Z" transform="translate(0.25 0.25)"/><path class="cls-1" d="M865.06,88.4l-1.35-3.51c-1.35,3-4.33,4.6-7.84,4.6-6.22,0-10.81-4.87-10.81-12.71V37c0-7,5.14-12.71,12.16-12.71S868.85,29.74,868.85,37V47.31h-7.57V36.49c0-2.16-1.35-3.78-4.05-3.78a3.76,3.76,0,0,0-3.78,4.05V78.13a3.7,3.7,0,0,0,4.05,4.05,3.83,3.83,0,0,0,4.05-4.05V64.61h-3.78V57.85h11.89V89.21h-4.6Z" transform="translate(0.25 0.25)"/><path class="cls-1" d="M904.53,88.4l-1.08-12.16h-7.3L894.8,88.4h-7.57l8.38-63.26h9.19l8.38,63.26Zm-4.6-47-3,27.3h5.41Z" transform="translate(0.25 0.25)"/><path class="cls-1" d="M937.78,80.56h13V88.4H928.59V84.88L942.38,33h-13V24.87h22.17v3.51Z" transform="translate(0.25 0.25)"/><path class="cls-1" d="M969.41,88.4V25.14h8.38V88.4Z" transform="translate(0.25 0.25)"/><path class="cls-1" d="M1016.18,88.4l-8.92-30.28-2.43-9.46V88.4h-7.57V25.14h7.84l8.11,30.28,2.43,9.46v-40h7.3V88.13l-6.76.27Z" transform="translate(0.25 0.25)"/><path class="cls-1" d="M1044,88.4V25.14h20.27V33h-11.89V52.17h8.38v7.57h-8.38V80.83h11.89v7.84L1044,88.4Z" transform="translate(0.25 0.25)"/><path d="M226.81,138.41v13h-4.33v-13l-4.6-19.73h4.33l2.7,14.06,2.7-14.06h4.33Z" transform="translate(0.25 0.25)"/><path d="M246.81,152.2c-3.78,0-6.49-2.7-6.49-6.76V124.89a6.47,6.47,0,0,1,6.49-6.76c3.78,0,6.49,2.7,6.49,6.76v20.55A6.47,6.47,0,0,1,246.81,152.2ZM249,124.62a1.93,1.93,0,0,0-1.89-2.16c-1.35,0-1.89.81-1.89,2.16v21.09a1.93,1.93,0,0,0,1.89,2.16c1.35,0,1.89-.81,1.89-2.16Z" transform="translate(0.25 0.25)"/><path d="M269.79,152.2a6.19,6.19,0,0,1-6.22-6.49V118.95h4.33v27a1.93,1.93,0,0,0,1.89,2.16c1.35,0,1.89-.81,1.89-2.16v-27h4.05v26.76C275.74,149.49,273.31,152.2,269.79,152.2Z" transform="translate(0.25 0.25)"/><path d="M296.56,151.66c-1.62,0-2.16-1.89-2.16-4.33v-7.84c0-1.08-.54-1.89-1.62-1.89h-1.89v14.06h-4.33v-33h6.76c2.7,0,5.41,1.62,5.41,5.95v7a4.59,4.59,0,0,1-2.43,4.33,4.53,4.53,0,0,1,2.7,4.33v7.3a5.77,5.77,0,0,0,.81,3.24v1.35h-3.24Zm-2.43-27c0-1.35-.54-1.89-1.35-1.89h-2.16v11.08h1.89c1.08,0,1.62-.54,1.62-1.89Z" transform="translate(0.25 0.25)"/><path d="M327.1,152.2c-3.78,0-6.22-2.43-6.22-6.76v-3.51h4.05v3.78c0,1.62.81,2.7,2.16,2.7,1.62,0,2.16-1.08,2.16-2.7,0-3-1.08-5.41-3.51-8.92-2.16-3-4.87-7.57-4.87-11.35,0-4.05,1.89-7.3,6.22-7.3,3.51,0,5.95,2.43,5.95,6.76v3.78h-3.78v-3.78c0-1.62-.81-2.7-1.89-2.7-1.35,0-2.16.81-2.16,2.43,0,3.78,1.35,5.41,3.78,9.19s4.6,7.3,4.6,11.08C333.59,150,330.35,152.2,327.1,152.2Z" transform="translate(0.25 0.25)"/><path d="M350.35,123v28.66H346V123H342v-4.33h12.44V123Z" transform="translate(0.25 0.25)"/><path d="M369.82,152.2c-3.78,0-6.49-2.7-6.49-6.76V124.89a6.47,6.47,0,0,1,6.49-6.76c3.78,0,6.49,2.7,6.49,6.76v20.55A6.47,6.47,0,0,1,369.82,152.2ZM372,124.62a1.93,1.93,0,0,0-1.89-2.16c-1.35,0-1.89.81-1.89,2.16v21.09a1.93,1.93,0,0,0,1.89,2.16c1.35,0,1.89-.81,1.89-2.16Z" transform="translate(0.25 0.25)"/><path d="M396.85,151.66c-1.62,0-2.16-1.89-2.16-4.33v-7.84c0-1.08-.54-1.89-1.62-1.89h-1.89v14.06h-4.33v-33h6.76c2.7,0,5.41,1.62,5.41,5.95v7a4.59,4.59,0,0,1-2.43,4.33,4.53,4.53,0,0,1,2.7,4.33v7.3a5.77,5.77,0,0,0,.81,3.24v1.35h-3.24Zm-2.43-27c0-1.35-.54-1.89-1.35-1.89H390.9v11.08h1.89c1.08,0,1.62-.54,1.62-1.89Z" transform="translate(0.25 0.25)"/><path d="M409,151.66v-33h4.33v33Z" transform="translate(0.25 0.25)"/><path d="M423.88,151.66v-33h10.54v4.05h-6.22v10h4.33v3.78h-4.33v10.81h6.22v4.05H423.88Z" transform="translate(0.25 0.25)"/><path d="M449.83,152.2c-3.78,0-6.22-2.43-6.22-6.76v-3.51h4.05v3.78c0,1.62.81,2.7,2.16,2.7,1.62,0,2.16-1.08,2.16-2.7,0-3-1.08-5.41-3.51-8.92-2.16-3-4.87-7.57-4.87-11.35,0-4.05,1.89-7.3,6.22-7.3,3.51,0,5.95,2.43,5.95,6.76v3.78H452v-3.78c0-1.62-.81-2.7-1.89-2.7-1.35,0-2.16.81-2.16,2.43,0,3.78,1.35,5.41,3.78,9.19s4.6,7.3,4.6,11.08C456.05,150,452.81,152.2,449.83,152.2Z" transform="translate(0.25 0.25)"/><path d="M465.51,151.66v-5.41H469v5.41Z" transform="translate(0.25 0.25)"/><path d="M497.14,138.41v13h-4.33v-13l-4.6-19.73h4.33l2.7,14.06,2.7-14.06h4.33Z" transform="translate(0.25 0.25)"/><path d="M517.15,152.2c-3.78,0-6.49-2.7-6.49-6.76V124.89a6.47,6.47,0,0,1,6.49-6.76c3.78,0,6.49,2.7,6.49,6.76v20.55C523.36,149.22,520.66,152.2,517.15,152.2ZM519,124.62a1.93,1.93,0,0,0-1.89-2.16c-1.35,0-1.89.81-1.89,2.16v21.09a1.93,1.93,0,0,0,1.89,2.16c1.35,0,1.89-.81,1.89-2.16Z" transform="translate(0.25 0.25)"/><path d="M539.85,152.2a6.19,6.19,0,0,1-6.22-6.49V118.95H538v27a1.93,1.93,0,0,0,1.89,2.16c1.35,0,1.89-.81,1.89-2.16v-27h4.05v26.76A5.83,5.83,0,0,1,539.85,152.2Z" transform="translate(0.25 0.25)"/><path d="M566.62,151.66c-1.62,0-2.16-1.89-2.16-4.33v-7.84c0-1.08-.54-1.89-1.62-1.89h-1.89v14.06h-4.33v-33h6.76c2.7,0,5.41,1.62,5.41,5.95v7a4.59,4.59,0,0,1-2.43,4.33,4.53,4.53,0,0,1,2.7,4.33v7.3a5.77,5.77,0,0,0,.81,3.24v1.35h-3.24Zm-2.43-27c0-1.35-.54-1.89-1.35-1.89h-2.16v11.08h1.89c1.08,0,1.62-.54,1.62-1.89Z" transform="translate(0.25 0.25)"/><path d="M599.33,151.66H595l-4.6-33h4.33l2.43,23.25,2.7-23.25h4.05Z" transform="translate(0.25 0.25)"/><path d="M619.33,152.2c-3.78,0-6.49-2.7-6.49-6.76V124.89a6.47,6.47,0,0,1,6.49-6.76c3.78,0,6.49,2.7,6.49,6.76v20.55A6.47,6.47,0,0,1,619.33,152.2Zm2.16-27.57a1.93,1.93,0,0,0-1.89-2.16c-1.35,0-1.89.81-1.89,2.16v21.09a1.93,1.93,0,0,0,1.89,2.16c1.35,0,1.89-.81,1.89-2.16Z" transform="translate(0.25 0.25)"/><path d="M636.09,151.66v-33h4.33v33Z" transform="translate(0.25 0.25)"/><path d="M657.18,152.2c-3.78,0-6.49-2.7-6.49-6.76V125.16a6.47,6.47,0,0,1,6.49-6.76c3.78,0,5.95,2.7,5.95,6.49v5.41h-3.78v-5.68a2.16,2.16,0,0,0-4.33,0v21.09a2.16,2.16,0,0,0,4.33,0V140h3.78v5.41C663.13,149.49,661,152.2,657.18,152.2Z" transform="translate(0.25 0.25)"/><path d="M673.13,151.66v-33h10.54v4.05h-6.22v10h4.33v3.78h-4.33v10.81h6.22v4.05H673.13Z" transform="translate(0.25 0.25)"/><path d="M698.81,152.2c-3.78,0-6.22-2.43-6.22-6.76v-3.51h4.05v3.78c0,1.62.81,2.7,2.16,2.7,1.62,0,2.16-1.08,2.16-2.7,0-3-1.08-5.41-3.51-8.92-2.16-3-4.87-7.57-4.87-11.35,0-4.05,1.89-7.3,6.22-7.3,3.51,0,5.95,2.43,5.95,6.76v3.78H701v-3.78c0-1.62-.81-2.7-1.89-2.7-1.35,0-2.16.81-2.16,2.43,0,3.78,1.35,5.41,3.78,9.19s4.6,7.3,4.6,11.08C705.3,150,702.05,152.2,698.81,152.2Z" transform="translate(0.25 0.25)"/><path d="M714.76,151.66v-5.41h3.51v5.41Z" transform="translate(0.25 0.25)"/><path class="cls-1" d="M131.92,151.93H136V54.07c0-6.22.27-10.81,1.08-14.06a17,17,0,0,1,4.05-7.57c3.51-3.51,8.38-5.41,14.6-5.41V24.87h-43V27a32.87,32.87,0,0,1,8.65,1.62,20.12,20.12,0,0,1,5.95,3.78A17,17,0,0,1,131.38,40c.81,3,1.08,7.84,1.08,14.06v67.31L56.77,24.87h-36V27a32.87,32.87,0,0,1,8.65,1.62,20.12,20.12,0,0,1,5.95,3.78A17,17,0,0,1,39.47,40c.81,3,1.08,7.84,1.08,14.06v68.66c0,6.22-.27,11.08-1.08,14.06a17,17,0,0,1-4.05,7.57,14,14,0,0,1-5.95,3.78,32.87,32.87,0,0,1-8.65,1.62v2.16h43v-2.16a32.87,32.87,0,0,1-8.65-1.62,20.12,20.12,0,0,1-5.95-3.78,17,17,0,0,1-4.05-7.57c-.81-3-1.08-7.84-1.08-14.06V41.63Z" transform="translate(0.25 0.25)"/><rect class="cls-2" x="0.25" y="0.25" width="176.53" height="176.53"/></svg>